<svg xmlns="http://www.w3.org/2000/svg" viewBox="0 0 160 120" role="img" aria-label="Cabaret (Halbrund zur Bühne)"><title>Cabaret (Halbrund zur Bühne)</title><rect width="160" height="120" fill="#fbf9f6"/><rect x="40.0" y="8.0" width="80.0" height="9.0" rx="2" fill="#e8e2d8" stroke="#8a7262" stroke-width=".6"/><text x="80" y="15" font-family="Arial" font-size="6" fill="#8a7262" text-anchor="middle">Bühne / Leinwand</text><circle cx="40" cy="46" r="10" fill="#c9a58d" stroke="#8a7262" stroke-width=".6"/><circle cx="54.3" cy="53.3" r="2.8" fill="#3d5a50"/><circle cx="48.4" cy="59.6" r="2.8" fill="#3d5a50"/><circle cx="40.0" cy="62.0" r="2.8" fill="#3d5a50"/><circle cx="31.6" cy="59.6" r="2.8" fill="#3d5a50"/><circle cx="25.7" cy="53.3" r="2.8" fill="#3d5a50"/><circle cx="80" cy="46" r="10" fill="#c9a58d" stroke="#8a7262" stroke-width=".6"/><circle cx="94.3" cy="53.3" r="2.8" fill="#3d5a50"/><circle cx="88.4" cy="59.6" r="2.8" fill="#3d5a50"/><circle cx="80.0" cy="62.0" r="2.8" fill="#3d5a50"/><circle cx="71.6" cy="59.6" r="2.8" fill="#3d5a50"/><circle cx="65.7" cy="53.3" r="2.8" fill="#3d5a50"/><circle cx="120" cy="46" r="10" fill="#c9a58d" stroke="#8a7262" stroke-width=".6"/><circle cx="134.3" cy="53.3" r="2.8" fill="#3d5a50"/><circle cx="128.4" cy="59.6" r="2.8" fill="#3d5a50"/><circle cx="120.0" cy="62.0" r="2.8" fill="#3d5a50"/><circle cx="111.6" cy="59.6" r="2.8" fill="#3d5a50"/><circle cx="105.7" cy="53.3" r="2.8" fill="#3d5a50"/><circle cx="40" cy="90" r="10" fill="#c9a58d" stroke="#8a7262" stroke-width=".6"/><circle cx="54.3" cy="97.3" r="2.8" fill="#3d5a50"/><circle cx="48.4" cy="103.6" r="2.8" fill="#3d5a50"/><circle cx="40.0" cy="106.0" r="2.8" fill="#3d5a50"/><circle cx="31.6" cy="103.6" r="2.8" fill="#3d5a50"/><circle cx="25.7" cy="97.3" r="2.8" fill="#3d5a50"/><circle cx="80" cy="90" r="10" fill="#c9a58d" stroke="#8a7262" stroke-width=".6"/><circle cx="94.3" cy="97.3" r="2.8" fill="#3d5a50"/><circle cx="88.4" cy="103.6" r="2.8" fill="#3d5a50"/><circle cx="80.0" cy="106.0" r="2.8" fill="#3d5a50"/><circle cx="71.6" cy="103.6" r="2.8" fill="#3d5a50"/><circle cx="65.7" cy="97.3" r="2.8" fill="#3d5a50"/><circle cx="120" cy="90" r="10" fill="#c9a58d" stroke="#8a7262" stroke-width=".6"/><circle cx="134.3" cy="97.3" r="2.8" fill="#3d5a50"/><circle cx="128.4" cy="103.6" r="2.8" fill="#3d5a50"/><circle cx="120.0" cy="106.0" r="2.8" fill="#3d5a50"/><circle cx="111.6" cy="103.6" r="2.8" fill="#3d5a50"/><circle cx="105.7" cy="97.3" r="2.8" fill="#3d5a50"/></svg>